<mxfile host="app.diagrams.net" modified="2022-11-08T03:34:42.592Z" agent="5.0 (Windows NT 10.0; Win64; x64) AppleWebKit/537.36 (KHTML, like Gecko) Chrome/106.0.0.0 Safari/537.36 Edg/106.0.1370.52" etag="3E22dD3VOC3A1xQ81Lal" version="20.5.2" type="github">
  <diagram id="tCjlD7nRdiX6uNqVaGSG" name="第 1 页">
    <mxGraphModel dx="3039" dy="2479" grid="1" gridSize="10" guides="1" tooltips="1" connect="1" arrows="1" fold="1" page="1" pageScale="1" pageWidth="827" pageHeight="1169" math="0" shadow="0">
      <root>
        <mxCell id="0" />
        <mxCell id="1" parent="0" />
        <mxCell id="HJKrdIAHuTzWnaGbLjfd-15" value="" style="rounded=1;whiteSpace=wrap;html=1;fontSize=36;" vertex="1" parent="1">
          <mxGeometry x="-140" y="380" width="1180" height="440" as="geometry" />
        </mxCell>
        <mxCell id="HJKrdIAHuTzWnaGbLjfd-14" value="" style="rounded=1;whiteSpace=wrap;html=1;fontSize=36;" vertex="1" parent="1">
          <mxGeometry x="-138" y="-90" width="1170" height="440" as="geometry" />
        </mxCell>
        <mxCell id="HJKrdIAHuTzWnaGbLjfd-3" value="" style="ellipse;whiteSpace=wrap;html=1;shadow=0;direction=west;fontSize=17;" vertex="1" parent="1">
          <mxGeometry x="-110" y="575" width="440" height="225" as="geometry" />
        </mxCell>
        <mxCell id="khwmqzdyOH615zkk4Opw-21" value="&lt;font style=&quot;font-size: 36px;&quot;&gt;文物风险&lt;/font&gt;" style="ellipse;whiteSpace=wrap;html=1;shadow=0;direction=west;fontSize=17;" parent="1" vertex="1">
          <mxGeometry x="50" y="80" width="290" height="180" as="geometry" />
        </mxCell>
        <mxCell id="khwmqzdyOH615zkk4Opw-24" value="&lt;font style=&quot;font-size: 36px;&quot;&gt;文物，文保单位&lt;/font&gt;" style="ellipse;whiteSpace=wrap;html=1;shadow=0;direction=west;fontSize=17;" parent="1" vertex="1">
          <mxGeometry x="290" y="-20" width="290" height="180" as="geometry" />
        </mxCell>
        <mxCell id="khwmqzdyOH615zkk4Opw-25" value="&lt;font style=&quot;font-size: 36px;&quot;&gt;文物舆情&lt;/font&gt;" style="ellipse;whiteSpace=wrap;html=1;shadow=0;direction=west;fontSize=17;" parent="1" vertex="1">
          <mxGeometry x="530" y="80" width="290" height="180" as="geometry" />
        </mxCell>
        <mxCell id="khwmqzdyOH615zkk4Opw-26" value="" style="ellipse;whiteSpace=wrap;html=1;shadow=0;direction=west;fontSize=17;" parent="1" vertex="1">
          <mxGeometry x="222" y="390" width="450" height="270" as="geometry" />
        </mxCell>
        <mxCell id="khwmqzdyOH615zkk4Opw-28" value="" style="ellipse;whiteSpace=wrap;html=1;shadow=0;direction=west;fontSize=17;" parent="1" vertex="1">
          <mxGeometry x="562" y="577.5" width="440" height="222.5" as="geometry" />
        </mxCell>
        <mxCell id="khwmqzdyOH615zkk4Opw-29" value="&lt;font style=&quot;font-size: 18px;&quot;&gt;文物社交网络数据&lt;/font&gt;" style="rounded=0;whiteSpace=wrap;html=1;shadow=0;fontSize=17;" parent="1" vertex="1">
          <mxGeometry x="36" y="600" width="156" height="40" as="geometry" />
        </mxCell>
        <mxCell id="khwmqzdyOH615zkk4Opw-30" value="&lt;span style=&quot;font-size: 18px;&quot;&gt;文物被盗发布平台&lt;/span&gt;" style="rounded=0;whiteSpace=wrap;html=1;shadow=0;fontSize=17;" parent="1" vertex="1">
          <mxGeometry x="-88" y="650" width="160" height="40" as="geometry" />
        </mxCell>
        <mxCell id="khwmqzdyOH615zkk4Opw-31" value="&lt;font style=&quot;font-size: 18px;&quot;&gt;裁判文书网数据&lt;/font&gt;" style="rounded=0;whiteSpace=wrap;html=1;shadow=0;fontSize=17;" parent="1" vertex="1">
          <mxGeometry x="140" y="650" width="150" height="40" as="geometry" />
        </mxCell>
        <mxCell id="khwmqzdyOH615zkk4Opw-33" value="&lt;font style=&quot;font-size: 18px;&quot;&gt;文物被盗数据&lt;/font&gt;" style="rounded=0;whiteSpace=wrap;html=1;shadow=0;fontSize=17;" parent="1" vertex="1">
          <mxGeometry x="281" y="460" width="130" height="30" as="geometry" />
        </mxCell>
        <mxCell id="khwmqzdyOH615zkk4Opw-34" value="&lt;font style=&quot;font-size: 18px;&quot;&gt;文物基础数据&lt;/font&gt;" style="rounded=0;whiteSpace=wrap;html=1;shadow=0;fontSize=17;" parent="1" vertex="1">
          <mxGeometry x="282" y="506" width="130" height="34" as="geometry" />
        </mxCell>
        <mxCell id="khwmqzdyOH615zkk4Opw-35" value="&lt;font style=&quot;font-size: 18px;&quot;&gt;文物舆情数据&lt;/font&gt;" style="rounded=0;whiteSpace=wrap;html=1;shadow=0;fontSize=17;" parent="1" vertex="1">
          <mxGeometry x="282" y="557.5" width="130" height="32.5" as="geometry" />
        </mxCell>
        <mxCell id="khwmqzdyOH615zkk4Opw-36" value="" style="endArrow=none;html=1;rounded=0;fontSize=12;entryX=0.5;entryY=0;entryDx=0;entryDy=0;exitX=0.5;exitY=1;exitDx=0;exitDy=0;" parent="1" source="khwmqzdyOH615zkk4Opw-26" target="khwmqzdyOH615zkk4Opw-26" edge="1">
          <mxGeometry width="50" height="50" relative="1" as="geometry">
            <mxPoint x="362" y="560" as="sourcePoint" />
            <mxPoint x="412" y="510" as="targetPoint" />
          </mxGeometry>
        </mxCell>
        <mxCell id="khwmqzdyOH615zkk4Opw-37" value="&lt;font style=&quot;font-size: 18px;&quot;&gt;文保单位数据&lt;/font&gt;" style="rounded=0;whiteSpace=wrap;html=1;shadow=0;fontSize=17;" parent="1" vertex="1">
          <mxGeometry x="472" y="506" width="120" height="40" as="geometry" />
        </mxCell>
        <mxCell id="khwmqzdyOH615zkk4Opw-38" value="&lt;font style=&quot;font-size: 18px;&quot;&gt;文物保护工程数据&lt;/font&gt;" style="rounded=0;whiteSpace=wrap;html=1;shadow=0;fontSize=17;" parent="1" vertex="1">
          <mxGeometry x="472" y="453" width="150" height="44" as="geometry" />
        </mxCell>
        <mxCell id="khwmqzdyOH615zkk4Opw-39" value="&lt;font style=&quot;font-size: 18px;&quot;&gt;文物拍卖数据&lt;/font&gt;" style="rounded=0;whiteSpace=wrap;html=1;shadow=0;fontSize=17;" parent="1" vertex="1">
          <mxGeometry x="472" y="557.5" width="140" height="35" as="geometry" />
        </mxCell>
        <mxCell id="khwmqzdyOH615zkk4Opw-40" value="&lt;font style=&quot;font-size: 18px;&quot;&gt;全国重点文物保护单位名录&lt;/font&gt;" style="rounded=0;whiteSpace=wrap;html=1;shadow=0;fontSize=17;" parent="1" vertex="1">
          <mxGeometry x="642" y="660" width="243.75" height="50" as="geometry" />
        </mxCell>
        <mxCell id="khwmqzdyOH615zkk4Opw-41" value="&lt;font style=&quot;font-size: 18px;&quot;&gt;文物拍卖指定企业&lt;/font&gt;" style="rounded=0;whiteSpace=wrap;html=1;shadow=0;fontSize=17;" parent="1" vertex="1">
          <mxGeometry x="698.5" y="730" width="159" height="52.5" as="geometry" />
        </mxCell>
        <mxCell id="khwmqzdyOH615zkk4Opw-42" value="&lt;font style=&quot;font-size: 18px;&quot;&gt;文物工程政务信息&lt;/font&gt;" style="rounded=0;whiteSpace=wrap;html=1;shadow=0;fontSize=17;" parent="1" vertex="1">
          <mxGeometry x="696" y="600" width="164" height="40" as="geometry" />
        </mxCell>
        <mxCell id="khwmqzdyOH615zkk4Opw-55" value="&lt;font style=&quot;font-size: 24px;&quot;&gt;文物&lt;/font&gt;" style="text;html=1;align=center;verticalAlign=middle;resizable=0;points=[];autosize=1;strokeColor=none;fillColor=none;fontSize=12;" parent="1" vertex="1">
          <mxGeometry x="362" y="405" width="70" height="40" as="geometry" />
        </mxCell>
        <mxCell id="khwmqzdyOH615zkk4Opw-56" value="&lt;font style=&quot;font-size: 24px;&quot;&gt;文保单位&lt;/font&gt;" style="text;html=1;align=center;verticalAlign=middle;resizable=0;points=[];autosize=1;strokeColor=none;fillColor=none;fontSize=12;" parent="1" vertex="1">
          <mxGeometry x="442" y="405" width="120" height="40" as="geometry" />
        </mxCell>
        <mxCell id="hBkb8uMDH17etPLo-Ms3-4" value="&lt;font style=&quot;font-size: 18px;&quot;&gt;文物政务信息数据&lt;/font&gt;" style="rounded=0;whiteSpace=wrap;html=1;shadow=0;fontSize=17;" parent="1" vertex="1">
          <mxGeometry x="32" y="700" width="160" height="40" as="geometry" />
        </mxCell>
        <mxCell id="HJKrdIAHuTzWnaGbLjfd-1" value="&lt;span style=&quot;color: rgb(0, 0, 0); font-family: Helvetica; font-style: normal; font-variant-ligatures: normal; font-variant-caps: normal; font-weight: 400; letter-spacing: normal; orphans: 2; text-align: center; text-indent: 0px; text-transform: none; widows: 2; word-spacing: 0px; -webkit-text-stroke-width: 0px; background-color: rgb(248, 249, 250); text-decoration-thickness: initial; text-decoration-style: initial; text-decoration-color: initial; float: none; display: inline !important;&quot;&gt;&lt;font style=&quot;font-size: 24px;&quot;&gt;文物风险，舆情&lt;/font&gt;&lt;/span&gt;" style="text;whiteSpace=wrap;html=1;" vertex="1" parent="1">
          <mxGeometry x="22" y="750" width="184" height="60" as="geometry" />
        </mxCell>
        <mxCell id="HJKrdIAHuTzWnaGbLjfd-2" value="&lt;span style=&quot;color: rgb(0, 0, 0); font-family: Helvetica; font-style: normal; font-variant-ligatures: normal; font-variant-caps: normal; font-weight: 400; letter-spacing: normal; orphans: 2; text-align: center; text-indent: 0px; text-transform: none; widows: 2; word-spacing: 0px; -webkit-text-stroke-width: 0px; background-color: rgb(248, 249, 250); text-decoration-thickness: initial; text-decoration-style: initial; text-decoration-color: initial; float: none; display: inline !important;&quot;&gt;&lt;font style=&quot;font-size: 24px;&quot;&gt;文物政务&lt;/font&gt;&lt;/span&gt;" style="text;whiteSpace=wrap;html=1;" vertex="1" parent="1">
          <mxGeometry x="892" y="670" width="100" height="41.88" as="geometry" />
        </mxCell>
        <mxCell id="HJKrdIAHuTzWnaGbLjfd-8" value="" style="strokeWidth=2;html=1;shape=mxgraph.flowchart.annotation_2;align=left;labelPosition=right;pointerEvents=1;fontSize=24;" vertex="1" parent="1">
          <mxGeometry x="412" y="480" width="60" height="100" as="geometry" />
        </mxCell>
        <mxCell id="HJKrdIAHuTzWnaGbLjfd-10" value="&lt;font style=&quot;font-size: 36px;&quot;&gt;用户&lt;/font&gt;" style="shape=umlActor;verticalLabelPosition=bottom;verticalAlign=top;html=1;outlineConnect=0;fontSize=18;" vertex="1" parent="1">
          <mxGeometry x="-640" y="320" width="100" height="190" as="geometry" />
        </mxCell>
        <mxCell id="HJKrdIAHuTzWnaGbLjfd-11" value="" style="strokeWidth=2;html=1;shape=mxgraph.flowchart.annotation_2;align=left;labelPosition=right;pointerEvents=1;fontSize=18;" vertex="1" parent="1">
          <mxGeometry x="-513" y="160" width="100" height="460" as="geometry" />
        </mxCell>
        <mxCell id="HJKrdIAHuTzWnaGbLjfd-12" value="&lt;font style=&quot;font-size: 36px;&quot;&gt;数据层&lt;/font&gt;" style="rounded=0;whiteSpace=wrap;html=1;fontSize=18;" vertex="1" parent="1">
          <mxGeometry x="-370" y="572.5" width="170" height="90" as="geometry" />
        </mxCell>
        <mxCell id="HJKrdIAHuTzWnaGbLjfd-13" value="&lt;font style=&quot;font-size: 36px;&quot;&gt;视图层&lt;/font&gt;" style="rounded=0;whiteSpace=wrap;html=1;fontSize=18;" vertex="1" parent="1">
          <mxGeometry x="-370" y="115" width="170" height="90" as="geometry" />
        </mxCell>
      </root>
    </mxGraphModel>
  </diagram>
</mxfile>
